<svg xmlns="http://www.w3.org/2000/svg" viewBox="0 0 391.6 165.64"><defs><style>.cls-1{fill:#fff;}</style></defs><g id="Layer_2" data-name="Layer 2"><g id="Layer_1-2" data-name="Layer 1"><path class="cls-1" d="M324.28,116.16a16.38,16.38,0,1,0,18.4-14.06A16.4,16.4,0,0,0,324.28,116.16Zm5.6.75A10.73,10.73,0,1,1,339.1,129,10.75,10.75,0,0,1,329.88,116.91Z"/><path class="cls-1" d="M341.56,110.54a7.86,7.86,0,1,0,6.75,8.83A7.87,7.87,0,0,0,341.56,110.54Z"/><path class="cls-1" d="M215,165.64h-.11a2.17,2.17,0,0,1-2-2.1l-1.48-60.71a92.67,92.67,0,0,1-3.55,11.23c-.51,1.25-2.06,5-5.27,5.49s-5.79-2.79-7.81-5.39c-.52-.67-1-1.3-1.42-1.76-.12-.13-.17-.14-.23-.14a2.29,2.29,0,0,0-1,.32,21.78,21.78,0,0,0-3.78,2.85,19.88,19.88,0,0,1-3,2.29,12.31,12.31,0,0,1-6.61,1.41l-109-.28-2.91-4.31,112.05.29h.19a8.25,8.25,0,0,0,4.2-.89,17.33,17.33,0,0,0,2.23-1.78,24.54,24.54,0,0,1,4.66-3.43c3.38-1.71,5.44-.25,6.37.77.53.58,1.06,1.27,1.63,2a25.15,25.15,0,0,0,2.55,3c.9.82,1.27.8,1.28.8s.79-.22,1.86-2.85c3.69-9.09,6.75-57.64,7-64a2.15,2.15,0,0,1,4.3,0l1.32,86.74c1.46-10.8,3-21.48,3.9-25.33.46-2,1.15-4.92,3.54-5,1.94-.07,2.78,1.9,3.06,2.55.36.86.7,1.95,1.06,3.09a23.66,23.66,0,0,0,1.47,3.94,2.83,2.83,0,0,0,.35.51,14.34,14.34,0,0,0,1.92-2l.28-.32a19.06,19.06,0,0,0,1.16-1.64c2.13-3.21,6.1-9.17,14.09-9.71,9.3-.62,13.19,5.28,16.95,11,.26.38.51.77.78,1.16a1.59,1.59,0,0,1,.21.41c.14.32,1.2,2.36,4.6,2.36h56.89v4.31H269.85c-5.75,0-8-3.75-8.49-4.83l-.69-1c-3.64-5.53-6.27-9.51-13.07-9.06-5.87.39-8.72,4.67-10.79,7.79a22,22,0,0,1-1.51,2.1l-.27.31c-1.53,1.75-3.26,3.74-5.62,3.52a4.82,4.82,0,0,1-3.62-2.73,21,21,0,0,1-1.59-4c-2.19,11.55-7,50.66-7,51.08A2.15,2.15,0,0,1,215,165.64Z"/><path class="cls-1" d="M54.88,8.27h0V8.21h0c1.63-4.5-2-5-2-5L44.77,1.52l-1,2.58,0,.06-1,2.58,7.23,4S53.18,12.75,54.88,8.27Z"/><path class="cls-1" d="M56.6,24.23s6.22-9.54,20.86-5.53S99.53,43.62,55.4,73c0,0-20.37-13.8-28.1-30.49C18.31,23.1,38,10.27,56.6,24.23Z"/><path class="cls-1" d="M54.27,98.1c-5.82-3.3-25.93-15.44-40.42-33.19-6.42-7.85-10.65-15.58-12.6-23A32.69,32.69,0,0,1,3.89,17.38C11,4.24,21.41.74,29,.12A36.5,36.5,0,0,1,43.67,2L42.1,6.06,42.88,4,42.1,6.06A32.48,32.48,0,0,0,29.16,4.51c-9.31.83-16.51,5.85-21.39,15C1.09,31.89,4.28,46.25,17.25,62.13c14,17.16,33.54,28.94,39.19,32.14Z"/><path class="cls-1" d="M57.24,8.27h0V8.21h0c-1.63-4.5,2-5,2-5l8.12-1.65,1,2.58,0,.06,1,2.58-7.23,4S58.94,12.75,57.24,8.27Z"/><path class="cls-1" d="M57.85,98.1c5.82-3.3,25.93-15.44,40.42-33.19,6.42-7.85,10.65-15.58,12.6-23a32.69,32.69,0,0,0-2.64-24.56C101.17,4.24,90.7.74,83.16.12A36.5,36.5,0,0,0,68.45,2L70,6.06,69.24,4,70,6.06A32.48,32.48,0,0,1,83,4.51c9.31.83,16.51,5.85,21.39,15,6.68,12.43,3.49,26.79-9.48,42.67-14,17.16-33.54,28.94-39.19,32.14Z"/><path class="cls-1" d="M69.74,118.8c-5.55-.15-9.79-1.84-12.59-5a14.76,14.76,0,0,1-3.4-10.27V94.77h4.19v9a10.59,10.59,0,0,0,2.39,7.26c2,2.25,5.21,3.45,9.54,3.56Z"/><path class="cls-1" d="M134,33.68V47.94h19.48v8.41H134V71.16h21.82V80H123V25h32.8v8.73Z"/><path class="cls-1" d="M174.51,71.08h25.64V80H162.36V71.55l25.09-37.8h-24.7V25h37.09v8.41Z"/><path class="cls-1" d="M267.48,66.79a23.85,23.85,0,0,1-9.94,9.7A32.32,32.32,0,0,1,242.08,80H222.52V25h19.56a33,33,0,0,1,15.46,3.39,23.46,23.46,0,0,1,9.94,9.58,29.45,29.45,0,0,1,3.43,14.46A29.47,29.47,0,0,1,267.48,66.79Zm-12.59-1.32q4.88-4.68,4.87-13.09t-4.87-13.17q-4.86-4.68-13.75-4.68h-7.63V70.14h7.63Q250,70.14,254.89,65.47Z"/><path class="cls-1" d="M318.94,27.75a26,26,0,0,1,9.9,10,29,29,0,0,1,3.62,14.53,29.24,29.24,0,0,1-3.62,14.57,25.92,25.92,0,0,1-9.9,10,29,29,0,0,1-28,0,26,26,0,0,1-9.9-10,29.35,29.35,0,0,1-3.62-14.57,29.12,29.12,0,0,1,3.62-14.53,26,26,0,0,1,9.9-10,29.11,29.11,0,0,1,28,0Zm-22.48,8.73a15,15,0,0,0-5.72,6.27,20.9,20.9,0,0,0-2.07,9.55,20.82,20.82,0,0,0,2.07,9.54,14.91,14.91,0,0,0,5.72,6.28,17.64,17.64,0,0,0,17,0,15,15,0,0,0,5.73-6.28,21,21,0,0,0,2.06-9.54,21,21,0,0,0-2.06-9.55,15,15,0,0,0-5.73-6.27,17.64,17.64,0,0,0-17,0Z"/><path class="cls-1" d="M382.64,29.7a25.06,25.06,0,0,1,9,14.42H380.07a15.11,15.11,0,0,0-5.57-7,15.77,15.77,0,0,0-9.08-2.57A14.32,14.32,0,0,0,352.1,43a21.69,21.69,0,0,0-2,9.5,21.49,21.49,0,0,0,2,9.43,14.32,14.32,0,0,0,13.32,8.42,15.77,15.77,0,0,0,9.08-2.57,15.06,15.06,0,0,0,5.57-7H391.6a25,25,0,0,1-9,14.42q-6.78,5.3-17.06,5.3a26.9,26.9,0,0,1-13.91-3.55A24.09,24.09,0,0,1,342.32,67,31,31,0,0,1,339,52.45a31.19,31.19,0,0,1,3.31-14.57A24.19,24.19,0,0,1,351.63,28a26.94,26.94,0,0,1,13.95-3.55Q375.87,24.4,382.64,29.7Z"/></g></g></svg>